<?xml version="1.0" standalone="no"?>
<!DOCTYPE svg PUBLIC "-//W3C//DTD SVG 20010904//EN"
 "http://www.w3.org/TR/2001/REC-SVG-20010904/DTD/svg10.dtd">
<svg version="1.0" xmlns="http://www.w3.org/2000/svg"
 width="512.000000pt" height="512.000000pt" viewBox="0 0 512.000000 512.000000"
 preserveAspectRatio="xMidYMid meet">
<metadata>
Created by potrace 1.14, written by Peter Selinger 2001-2017
</metadata>
<g transform="translate(0.000000,512.000000) scale(0.100000,-0.100000)"
fill="#000000" stroke="none">
<path d="M1710 5113 c-66 -27 -111 -97 -103 -161 5 -39 41 -102 58 -102 6 -1
-31 -18 -81 -40 -590 -254 -1055 -713 -1317 -1300 -82 -183 -161 -456 -183
-635 -3 -22 -7 -50 -9 -61 -22 -103 -22 -483 0 -619 3 -16 7 -43 10 -60 2 -16
7 -48 10 -70 28 -194 141 -528 242 -712 13 -24 35 -64 49 -90 14 -27 59 -97
100 -158 366 -545 961 -940 1599 -1060 291 -54 706 -54 949 0 12 3 33 7 47 9
51 8 222 57 323 93 473 166 924 513 1218 938 212 307 363 691 414 1053 3 20 7
48 9 62 7 48 19 256 18 325 0 82 -12 265 -19 297 -2 13 -7 43 -10 68 -3 25 -9
61 -14 80 -5 19 -11 51 -14 70 -9 59 -73 269 -116 378 -74 191 -194 407 -319
577 -143 193 -360 408 -546 538 -44 31 -85 60 -90 65 -32 26 -277 159 -356
193 -52 22 -103 44 -114 49 -20 9 -84 31 -206 69 -74 23 -290 68 -365 76 -27
3 -83 9 -124 14 -84 9 -388 7 -465 -3 -27 -4 -68 -9 -90 -12 -56 -8 -234 -42
-272 -53 l-33 -10 0 41 c0 52 -25 103 -63 130 -30 21 -108 33 -137 21z"/>
</g>
</svg>
